<svg width="308" height="343" viewBox="0 0 308 343" fill="none" xmlns="http://www.w3.org/2000/svg">
<path d="M251.8 292.6C249.9 277.8 241.5 252.9 236.4 246.2C230.8 238.9 228.5 236.6 209.8 230.3C208.8 225.3 205.1 212.7 200.7 207.4C194 197.3 175.7 195 170.2 196.2C170.2 196.2 140.6 185.8 106.5 185.8C95.6996 188.2 83.1996 193.1 76.3996 203.4C71.7996 210.2 76.9996 212.4 74.6996 218.6C74.0996 220.2 60.0996 228.2 54.3996 233C51.7996 235.1 48.8996 240.4 46.8996 247.3C42.8996 261.4 47.1996 280.9 42.1996 297.9C32.5996 330.7 13.0996 340.5 13.0996 340.5H271.5C271.3 340.4 255.9 323.8 251.8 292.6Z" fill="white"/>
<path d="M250.3 292.8C248.3 279.7 244.3 266.7 239.2 254.5C236.7 248.6 232.9 242.9 227.6 239.4C224.9 237.7 221.9 236.4 218.8 235.1C215.7 233.9 212.5 232.8 209.4 231.7C208.9 231.5 208.5 231.1 208.4 230.6C208 228.6 207.5 226.7 206.9 224.7C204.3 216.6 201.5 207.6 193.9 202.9C188.1 199.4 181.2 197.7 174.5 197.4C173.2 197.4 171.8 197.4 170.6 197.6H170.2C170.1 197.6 169.9 197.6 169.8 197.5C165 195.2 159.7 193.8 154.5 192.4C138.9 188.8 122.6 187.3 106.6 187.2C96.8 189.5 83.1 194.9 77.1 204.9C76.1 206.5 75.6 208.1 75.8 209.9C76 211.9 76.7 214.1 76.2 216.2C76 217.1 75.8 218.1 75.4 218.9C74.6 220 73.3 220.7 72.3 221.4C67.1 224.8 61.8 227.8 56.8 231.3C55.1 232.5 53.5 233.6 52.3 235.3C48.8 240.3 46.7 246.3 45.8 252.3C44.2 264.5 45.8 276.9 44.2 289.1C42.4 301.3 37.7 313.1 31.1 323.5C26.5 330.5 20.9 337 13.8 341.5L13.1 338.7H271.5L270.4 341.2C267.4 337.8 265 334.1 262.8 330.2C256 318.8 252 305.9 250.3 292.8ZM253.3 292.4C254.4 300.9 256.5 309.3 259.7 317.3C262.9 325.2 266.9 332.9 272.5 339.4C273.3 340.3 272.6 342 271.4 341.9H13C12.2 341.9 11.5 341.2 11.5 340.4C11.5 339.8 11.8 339.3 12.3 339.1C13.9 338.2 15.5 336.9 17 335.6C30.1 323.8 38.3 306.3 41 288.9C43.3 272.6 39 255 46.3 239.5C48 235.9 50.1 232.1 53.5 229.8C59.7 225.2 66.5 221.8 72.6 217.3C72.7 217.3 72.7 217.2 72.7 217.2C72.6 217.3 72.5 217.5 72.5 217.6C73.1 216.2 73.3 215 73.1 213.4C72.8 211.4 72.3 208.7 73 206.6C73.3 205.4 73.9 204.3 74.5 203.4C81.7 192.6 94.4 187.8 106.5 185.1C109.9 185.2 113.4 184.6 116.8 184.6C121.5 184.6 126.3 185.3 131 185.9C144.5 188 157.5 191.6 170.8 194.5L169.9 194.4C173 193.8 175.9 194.1 178.9 194.5C198.1 197.4 204.6 205.8 209.8 223.7C210.4 225.7 210.9 227.7 211.4 229.8L210.4 228.6C220 232 230.8 235.1 236.9 244C239.1 246.7 240.7 249.9 242.1 253.1C247.2 265.9 251.2 278.8 253.3 292.4Z" fill="black"/>
<path d="M94.2002 226.8C101.6 242.6 113.1 256 126.8 266.6C127.3 267 126.8 267.8 126.2 267.5C114 261.7 103.7 251.8 97.6002 239.8C95.6002 235.8 93.9003 231.5 93.3003 227C93.1003 226.5 93.9002 226.3 94.2002 226.8Z" fill="black"/>
<path d="M211.3 230.1C211.6 246.8 204.8 263.9 191.8 274.7C191.5 275 191.1 274.9 190.8 274.6C190.5 274.3 190.6 273.9 190.9 273.6C193.8 270.8 196.7 267.9 198.9 264.5C203.5 257.9 206.3 250.1 207.6 242.2C208.2 238.3 208.6 234.1 208.3 230.2C208.2 228.3 211.2 228.1 211.3 230.1Z" fill="black"/>
<path d="M152.4 269.8C150.1 277.9 148.2 286.7 149.3 295.1C149.6 297 146.7 297.5 146.3 295.5C145.8 290.9 146.4 286.4 147.2 282C148.1 277.6 149.2 273.4 150.7 269.2C151.1 268.2 152.8 268.7 152.4 269.8Z" fill="black"/>
<path d="M184.2 268.3C187.5 275.4 189.8 282.8 191.6 290.3C191.8 291.1 191.3 291.9 190.5 292.1C189.7 292.3 188.9 291.8 188.7 291C187.7 285.4 186.4 279.8 184.6 274.3C184 272.5 183.4 270.7 182.7 268.9C182.3 268 183.7 267.3 184.2 268.3Z" fill="black"/>
<path d="M76.8 218.2C80.5 238.4 94.7 255.5 111.8 266.4C117.6 270.1 123.8 273.3 130.2 275.9C130.6 276.1 130.8 276.5 130.6 276.9C130.5 277.3 130 277.5 129.7 277.3C123.1 274.9 116.7 271.9 110.7 268.3C98.5 261.1 87.8 251.1 80.6 238.9C76.9 232.6 74 226 72.6 218.8C72.4 217.6 73.2 216.5 74.4 216.3C75.5 216 76.7 216.9 76.8 218.2Z" fill="black"/>
<path d="M146.4 297.3C143.6 297 141.6 294.4 142.2 291.6L143.3 286.3C143.7 284.2 145.7 282.7 147.8 283C149.9 283.2 151.6 285 151.6 287.2V292.6C151.7 295.4 149.3 297.6 146.4 297.3Z" fill="black"/>
<path d="M192.5 293.6C189.8 294.6 186.9 293 186.2 290.2L184.9 284.9C184.4 282.8 185.5 280.7 187.6 279.9C189.6 279.2 191.9 280.1 192.8 282L195.2 286.9C196.4 289.6 195.2 292.7 192.5 293.6Z" fill="black"/>
<path d="M62.2 340.4C62.2 340.4 61.3 318.1 58.3 312.1" stroke="black" stroke-width="5.1257" stroke-miterlimit="10" stroke-linecap="round" stroke-linejoin="round"/>
<path d="M238.7 290.6C238.7 290.6 244.3 322 242.1 340.4" stroke="black" stroke-width="5.1257" stroke-miterlimit="10" stroke-linecap="round" stroke-linejoin="round"/>
<path d="M222.6 320.8C222.6 320.8 207.8 323 194.8 322.4" stroke="black" stroke-width="5.1257" stroke-miterlimit="10" stroke-linecap="round" stroke-linejoin="round"/>
<path d="M108.1 214.6C106.7 210.6 106.1 206.5 106.4 202.3C106.4 201.9 106.7 201.7 107.1 201.7C107.4 201.7 107.7 202 107.7 202.3C108 206.1 109.1 210 110.9 213.3C111.8 215.3 108.8 216.6 108.1 214.6Z" fill="black"/>
<path d="M175.7 219.9C172.9 213.6 166 210.4 159.9 208.2C156.1 207 151.9 206.1 147.9 205.5C138.2 204 124.5 201.7 114.8 200.7C114.7 200.7 114.7 200.5 114.8 200.5C117.6 200.2 120.4 200.2 123.2 200.2C131.6 200.4 140 201.3 148.3 202.6C156.6 203.9 165.5 206.4 171.8 212.4C173.8 214.5 175.6 216.9 176.1 219.8C176.2 220.1 175.8 220.2 175.7 219.9Z" fill="black"/>
<path d="M182.999 245.6C180.899 255.9 167.299 262.1 144.399 252.8C120.599 243.2 110.299 220.3 107.699 213.5C121.799 187.1 111.999 168.8 111.999 168.8C144.499 166 172.899 204 172.899 204L177.299 222.8C177.699 224.4 178.499 225.8 179.699 226.8C181.799 230.5 184.299 239 182.999 245.6Z" fill="white"/>
<path d="M107.2 213.8C109.1 210.9 110.3 207.5 111.1 204.2C112.6 197.3 113.1 190.3 113.2 183.3V180.7C112.9 178.1 112 175.4 111 173C109.7 169.8 114.4 167.8 115.9 171C116.1 171.4 116.1 172.1 116.1 172.5C116.4 186.1 117 203.6 108.4 214.9C107.8 215.5 106.6 214.6 107.2 213.8Z" fill="black"/>
<path d="M173.999 203.8C175.499 204.7 175.999 205.9 176.199 207.1C176.799 209.5 176.599 212.1 177.199 214.6C177.699 217 179.199 219.3 179.599 221.8C180.099 224.4 181.599 229.9 182.199 232.6C182.399 233.2 181.999 233.9 181.299 234C180.899 234.1 180.599 234 180.299 233.8C178.999 232.7 178.399 231.6 177.599 230.2C176.299 227.8 175.399 225.6 174.599 222.9C173.899 220.5 174.199 217.9 173.599 215.4C173.099 213 171.699 210.7 171.199 208.2C170.899 207 170.799 205.7 171.699 204.2C172.299 203.6 173.299 203.4 173.999 203.8Z" fill="black"/>
<path d="M181.2 230.2C162.1 229.2 146.5 223.2 131.3 196.1C144.1 207.4 159.2 211.7 175.1 213.7L177.2 222.9C177.6 224.5 180 229.2 181.2 230.2Z" fill="black"/>
<path d="M180.4 226.5C183.8 232.9 185.8 240.9 183.7 248C182.1 253 177.5 256.7 172.5 258.1C160.9 261.2 147.5 256.3 137.2 250.8C124.5 243.7 115.1 231.8 109.1 218.8C108.7 217.8 110.1 217 110.7 218C112.8 222.2 115.2 226.3 117.9 230C120.6 233.8 123.7 237.3 127.2 240.4C137.4 249.6 151.2 255.3 165 255.3C179.2 254.9 184.6 247.4 181.3 233.6C180.8 231.4 180 229.1 178.9 227.2C178.3 226.4 179.8 225.5 180.4 226.5Z" fill="black"/>
<path d="M219.1 106.4C220.9 114.8 219.5 120.4 218.7 143.6C217.9 166.4 211.3 198.6 203.2 206.7C197 212.8 177.1 217.6 159.4 213.1C150.4 210.8 142.8 205.6 136.6 201.9C128.8 197.2 122 182.7 116.4 173.4C112 166.1 112.4 174.9 106.7 168.6C98.7996 160 89.2996 142.7 93.9996 112.1C101.6 62.5001 140.9 56.7001 170 62.2001C199.3 67.7001 214.3 84.3001 219.1 106.4Z" fill="white"/>
<path d="M111.7 177.4C109.4 173.6 106.4 170.2 103.7 166.6C99.7001 161.1 96.7001 154.8 94.7001 148.3C86.0001 120.5 91.3001 84.1001 117.6 67.7001C141.5 52.5001 187.9 58.0001 207.3 78.8001C214.6 86.3001 219.3 96.1001 221.3 106.3C221.4 106.9 221.7 108 221.8 108.6C221.9 109.1 222.2 109.7 222.1 110.3C221.9 112.5 221.5 114.7 221.3 116.9C219.8 130.2 220.2 143.8 218.5 157.1C217 171.1 215 185.1 210.8 198.6C209.5 202.7 207 206.4 203.7 209.1C196.3 215.3 186.6 217.4 177.3 217.8C158.7 218.7 139.8 212.1 129 196.4C128.6 195.8 129.4 195.1 129.9 195.7C138.9 205.4 151.1 211.6 164.1 213C178.5 214.7 200.2 213.4 206.5 198C213.8 176.2 217.6 153.1 218 130.2C218 124.6 217.7 119 217.7 113.3C217.7 112.6 217.8 111 217.8 110.3C217.8 110.3 217.8 110.2 217.8 110.3C217.8 110.4 217.8 110.4 217.8 110.3C217 108.3 216.7 106.1 216.1 104.1C213.9 95.8001 209.9 87.9001 204.2 81.6001C185.3 60.4001 143.2 55.1001 119.6 71.0001C100.9 83.4001 95.9001 107.2 94.6001 128.2C93.5001 143.9 98.1001 159.3 110 170.1L114.7 175C116.7 177.2 113.3 179.8 111.7 177.4Z" fill="black"/>
<path d="M123.5 145.6C123.5 145.6 120.4 130.6 105.8 132.4C93.2004 134 88.8004 164.2 117.4 172.6" fill="white"/>
<path d="M116.1 159.5C113.8 158.2 112.2 156 112.1 153.3C112.2 151.3 112.5 149 112 147C111.7 145.1 109.7 144.6 108.2 144.7C106.6 145 105.6 147 105.3 148.6C105.3 148.7 105.2 149 105.2 149.1C105.1 149.6 104.3 149.6 104.1 149.1C102.8 145.2 105.7 140.9 109.9 141.4C115.8 141.8 116.6 148 115.5 152.7C114.9 154.7 115.7 156.5 116.8 158.2L117 158.5C117.5 159.1 116.7 159.9 116.1 159.5Z" fill="black"/>
<path d="M196.101 135C197.601 142.1 200.401 148.7 203.901 154.9C207.001 162.5 199.001 169.7 191.901 169.4C191.101 169.4 191.001 168.3 191.701 168.1C196.201 166.7 200.301 163.7 201.001 159.1C201.301 157.7 200.901 156.5 200.201 155.3C196.901 149.1 194.901 142 195.401 135C195.401 134.5 196.101 134.5 196.101 135Z" fill="black"/>
<path d="M123 145.7C120.7 139.8 115.7 134.2 109 134.3C108.4 134.2 107.4 134.4 106.8 134.4C105.1 134.5 103.7 135.1 102.4 136.3C96.0001 142.7 97.1001 154 102.3 161.1C104.1 163.6 106.4 165.8 109 167.6C111.6 169.4 114.5 170.8 117.6 172C118.3 172.2 118 173.3 117.3 173.2C110.6 171.8 104.2 168.5 99.8001 163C93.0001 154.8 91.6001 141.1 99.7001 133.1C101.5 131.5 104 130.3 106.5 130.3C107.3 130.3 108.5 130.1 109.3 130.3C113.5 130.5 117.5 132.6 120.1 135.9C122.4 138.7 123.7 142.1 124.1 145.5C124.1 146.1 123.2 146.3 123 145.7Z" fill="black"/>
<path d="M226.7 82.6001C233.8 56.9001 205 40.8001 197.3 52.4001C191.7 60.8001 170.1 54.3001 137.3 53.7001C104.5 53.0001 95.7003 70.4001 95.3003 89.1001C95.3003 89.1001 80.9003 96.7001 81.8003 123.5C82.7003 151.3 111.3 173.7 114.8 187.8C114.8 187.8 115.2 189.6 111.4 170.3C89.6003 159.8 94.2003 133.9 105.9 132.4C114.8 131.3 119.5 136.5 121.7 140.7C122.6 141.9 131.1 152.3 131.3 118.3C131.4 95.1001 154 87.5001 179.7 96.9001C193.1 101.8 207.2 105.4 216.9 98.4001C218.5 103 220.2 108.1 218.9 114.3C222.8 110.7 226.1 105.4 227 98.9001C227.6 95.0001 226.6 91.6001 224.4 88.6001C225.3 86.9001 226.1 84.8001 226.7 82.6001Z" fill="black"/>
<path d="M190.5 179.4C184.1 185.5 172 180.6 168.8 173.2C168.4 172.3 169.4 171.5 170.2 171.9C171.9 172.8 173.4 173.7 175 174.4C179.6 176.5 184.4 178.2 189.5 177.7C190.5 177.5 191.2 178.7 190.5 179.4Z" fill="black"/>
<path d="M141.5 165C144.3 163.5 147 161.9 150.1 161.1C150.4 161.1 150.6 161 151.2 161.2C153.3 162.8 147.2 166.8 146.1 167.8C146.4 167.4 146.3 166.7 145.8 166.5C145.7 166.5 145.7 166.4 145.6 166.4C145.4 166.4 145.4 166.4 145.4 166.4C147.9 165.5 150.4 164.5 152.8 163.3C154.2 162.7 156.1 161.4 157.6 161.3C158.2 161.3 158.9 161.9 158.8 162.5C158.7 163.3 158.5 163.6 158.3 164.1C158.1 164.5 157.7 165.1 157.6 165.5C157.6 165.6 157.5 165.4 157.5 165.4C157.5 165.5 158.1 165.5 158.2 165.4C159.8 165.2 161.5 164.6 163.1 164C163.4 163.9 163.6 164.3 163.3 164.5C161.6 165.6 159.8 166.8 157.6 167C156.2 167.1 155.5 165.8 156 164.6C156.2 163.9 156.7 163.1 156.9 162.5C156.9 162.7 157.1 163 157.3 163.1C157.5 163.2 157.6 163.1 157.5 163.2C156.5 163.5 154.5 164.6 153.6 165C151 166.2 148.5 167.3 145.7 168.1C145.5 168.1 145.5 168.2 145.2 168.1C144.4 168 144.2 167 144.8 166.5C146 165.5 147.4 164.7 148.5 163.7C149.1 163.2 149.8 162.5 150.2 161.9C150.2 162 150.3 162.2 150.4 162.3C149.5 162.4 147.7 162.9 146.6 163.4C145 164 143.3 164.7 141.7 165.4C141.5 165.6 141.2 165.1 141.5 165Z" fill="black"/>
<path d="M206.3 165C207.2 164 211 159.2 212 161.7C212 161.9 212 162.1 212 162.2C211.6 164.2 210.3 165.9 209.3 167.6C209.5 167.1 209.1 166.4 208.6 166.3C208.4 166.3 208.3 166.3 208.2 166.3C208.1 166.3 208.2 166.3 208.3 166.2C210.3 164.9 211.8 163.3 213.8 161.9C214.2 161.7 214.7 161.4 215.2 161.7C215.7 162.1 215.6 162.7 215.4 163.1C215.2 163.6 215 164 214.8 164.5C214.7 164.6 214.6 164.7 214.4 164.6C214.3 164.6 214.3 164.5 214.3 164.4C214.3 164.2 214.3 162.9 214.3 162.7C214.3 162.6 214.2 162.5 214.3 162.7C214.3 162.8 214.5 163 214.7 163C214.8 163 215 163 215 163C213.3 165 211.3 166.9 209 168.2C208.3 168.5 207.5 167.9 207.6 167.1C207.6 167 207.7 166.8 207.8 166.7C208.5 165.7 209.3 164.7 209.9 163.7C210.2 163.2 210.6 162.5 210.7 162C210.7 162.2 211.1 162.5 211.2 162.4C209.6 163 208.2 164.3 206.8 165.3C206.4 165.6 206.1 165.2 206.3 165Z" fill="black"/>
<path d="M177.001 157.6C172.401 157.7 158.201 157.8 153.801 157.9C146.201 158 140.501 151.4 141.201 143.9C141.301 141.4 141.201 137.9 141.301 135.4C141.501 128.9 147.301 123.4 153.801 123.6L170.701 123.8C172.001 123.8 175.701 123.9 177.001 123.9C182.401 123.8 187.501 127.8 188.701 133.1C189.101 134.6 189.001 136.2 189.001 137.5V146C188.901 152.3 183.301 157.7 177.001 157.6ZM177.001 155.4C182.201 155.6 187.001 151.1 187.101 145.9C187.201 143.2 187.101 140.3 187.101 137.5C187.701 131.4 183.101 125.8 176.901 126C172.601 126.1 158.201 126.2 153.701 126.3C148.301 126.3 143.701 131.2 144.101 136.6C144.101 137.3 144.101 139.1 144.101 139.8C144.201 142 143.901 145.8 144.401 147.8C145.401 152 149.401 155.2 153.701 155.2H155.801C158.701 155.2 174.001 155.4 177.001 155.4Z" fill="black"/>
<path d="M217.3 126.5L209.4 126.6C207.2 126.7 204.6 126.3 202.7 127.6C200.9 128.8 200.1 131 200.2 133.1C200.2 135.7 200.2 138.4 200.1 141L200 140.6C201.4 145.5 203.3 150.2 206.2 154.3L205.2 153.7C206 153.9 207.4 153.9 208.2 153.9C211.2 154 214.7 154.2 217.7 154.2C220.5 154.2 223.2 152.1 223.8 149.3C224 148.5 224 147.1 224 146.3C224 142 224.1 137.8 223.9 133.5C224.1 129.7 221.2 126.3 217.3 126.5ZM217.3 123.5C222.6 123.5 226.3 128.6 225.4 133.6C225.2 137.9 225.3 142.1 225.3 146.4C225.8 151.4 222.8 155.9 217.6 156.3C215.4 156.4 213.3 156.4 211.2 156.5C210.1 156.5 207.4 156.7 206.4 156.7C205.9 156.8 205.1 156.7 204.6 156.7C204.2 156.7 203.8 156.4 203.6 156.1C200.5 151.5 198.3 146.4 197 141.1C197 137.7 196.7 134.3 197 130.9C197.6 126.9 201.2 123.5 205.3 123.4C208.1 123.3 214.5 123.5 217.3 123.5Z" fill="black"/>
<path d="M187.9 132.7C190.6 131.5 193.6 131 196.6 131.2C197.6 131.3 198.6 131.6 199.5 132.4L200.8 133.5C202.1 134.6 200.5 136.5 199.2 135.4C197.6 134 195.7 134.2 193.8 134.3C191.9 134.5 190.1 134.9 188.3 135.6C186.6 136.3 185.5 133.8 187.1 133C187.1 133 187.9 132.7 187.9 132.7Z" fill="black"/>
<path d="M142.9 136.3C142.2 137.9 141.4 138.1 140.1 138L137.2 138.1C131.4 138.1 125.5 138 119.7 137.1C117.7 137 117.6 134.2 119.6 134.1L142.8 133.3C143.5 133.3 144 134 143.7 134.6L142.9 136.3Z" fill="black"/>
<path d="M205.1 195.805C206.6 187.905 207.1 179.905 205.8 172.005C205.3 169.005 203.5 164.005 200.7 166.205C199.6 167.105 193.9 168.905 192.8 169.005C189.6 169.305 187.2 168.905 184.9 167.105C182.3 165.005 182.3 164.105 181.7 163.905C171.2 160.405 158 156.905 153.7 171.005C150.2 182.505 141.4 193.805 134.9 182.605C129.9 174.105 130.2 157.905 129.5 154.505C127.8 146.105 125.4 142.005 124 143.205C124 145.905 124.9 177.805 125 179.505C125.7 188.305 126.8 191.105 130.8 196.805C134.8 202.505 148.8 218.005 167 219.305C185.3 220.605 195.4 219.105 205.6 207.405C214.8 196.805 215.1 174.805 215.1 174.805C210.6 188.105 207.5 192.505 205.1 195.805ZM163.9 173.305C169.1 167.605 176.7 174.205 184.9 174.805C193 175.405 196.3 170.305 196.9 179.305C197.1 181.505 197.4 185.205 197.3 187.705C197.3 187.805 197.3 187.905 197.3 188.005C197 190.805 196.1 193.905 193.3 195.605C187.4 199.305 177.9 198.405 171.8 197.205C163.3 195.505 161.5 191.605 161.1 189.805C160.5 182.105 161.8 175.605 163.9 173.305Z" fill="black"/>
<path d="M173.5 124.4C175.7 124.7 177.4 122.4 176.6 120.2C176.2 119 175.5 117.9 174.4 117.2C171 115.1 158.3 114.9 151.6 119.7C145.6 124.1 163.5 123 173.5 124.4Z" fill="black"/>
<path d="M201.2 125.5C199.4 125.5 198.3 123.2 199.2 121.3C199.7 120.3 200.4 119.4 201.4 118.9C204.5 117.4 212.8 118.3 216.5 123.4C219.8 127.9 209.5 125.4 201.2 125.5Z" fill="black"/>
<path d="M169.8 137.3C164.7 135.1 158.9 135.7 153.6 136.9C153 137.1 152.6 136.3 153.1 135.9C157.7 132.1 166.4 131.6 170.1 136.8C170.4 137 170.2 137.4 169.8 137.3Z" fill="black"/>
<path d="M209.1 139.4C206.7 137.7 203.2 138 200.4 138.3C199.4 138.4 198.4 138.6 197.3 138.9C197 139 196.7 138.5 196.9 138.3L197.1 138.1C199.6 135.5 203.5 134.9 206.9 136.2C208.1 136.7 209.3 137.4 209.9 138.8C210.2 139.3 209.5 139.8 209.1 139.4Z" fill="black"/>
</svg>
